<?xml version="1.0" standalone="no"?>
<!DOCTYPE svg PUBLIC "-//W3C//DTD SVG 20010904//EN"
 "http://www.w3.org/TR/2001/REC-SVG-20010904/DTD/svg10.dtd">
<svg version="1.0" xmlns="http://www.w3.org/2000/svg"
 width="1024.000000pt" height="1024.000000pt" viewBox="0 0 1024.000000 1024.000000"
 preserveAspectRatio="xMidYMid meet">

<g transform="translate(0.000000,1024.000000) scale(0.100000,-0.100000)"
fill="#000000" stroke="none">
<path d="M4830 5823 c-332 -20 -592 -59 -693 -106 -68 -32 -197 -136 -197
-159 0 -5 23 11 51 36 59 53 149 99 234 121 63 15 355 49 515 60 l95 6 -40
-27 c-22 -14 -33 -24 -25 -21 51 16 171 46 207 52 58 9 96 -12 111 -62 17 -60
41 -210 48 -310 l7 -93 -55 0 -56 0 -17 90 c-21 107 -31 113 -16 10 5 -40 7
-78 4 -86 -4 -12 -52 -14 -268 -14 -145 0 -266 3 -269 8 -18 30 75 136 194
220 95 66 95 70 0 21 -95 -49 -183 -129 -243 -221 -22 -34 -47 -60 -60 -63
-34 -7 -590 -32 -609 -27 -10 2 -18 12 -18 21 0 14 -2 14 -10 1 -16 -25 -11
-38 19 -45 l28 -6 -28 -117 c-15 -64 -26 -118 -24 -120 6 -6 690 19 696 26 3
4 13 62 22 130 9 67 19 127 22 132 3 6 15 10 26 10 16 0 19 -7 19 -47 -1 -27
-7 -95 -14 -151 -10 -81 -10 -105 -1 -109 7 -2 55 2 106 9 l94 14 -4 142 -4
142 161 0 160 0 6 -72 c3 -40 8 -189 11 -330 l6 -258 -220 0 c-137 0 -222 -4
-226 -10 -3 -6 0 -12 7 -15 7 -3 138 -6 291 -8 234 -2 279 -4 287 -17 25 -39
21 -40 -278 -40 -217 0 -291 3 -301 13 -11 10 -12 5 -7 -28 3 -22 9 -75 13
-118 l6 -78 278 3 c208 2 275 0 266 -8 -8 -8 -106 -14 -294 -18 l-281 -7 -6
78 c-14 170 -56 258 -127 269 -45 8 -91 -28 -114 -90 -17 -43 -17 -43 -73 -49
-31 -3 -61 -2 -66 3 -6 6 -3 31 8 67 26 83 82 136 160 154 51 11 65 11 105 -4
36 -12 42 -13 27 -2 -94 71 -326 -5 -496 -162 -38 -36 -77 -63 -89 -63 -20 0
-21 4 -21 148 0 170 -5 159 95 211 67 35 41 32 -50 -7 -61 -25 -187 -40 -364
-41 l-75 -1 29 30 c34 35 20 41 -17 7 -24 -22 -25 -29 -31 -182 -3 -87 -10
-161 -14 -165 -4 -5 -23 -6 -40 -3 -29 5 -33 9 -33 37 1 17 7 48 14 68 l13 37
-23 -17 c-35 -26 -54 -66 -54 -112 l0 -42 203 6 c111 3 330 7 487 8 l284 3 -3
-85 c-1 -47 -4 -86 -5 -87 -1 -2 -210 -6 -464 -9 -254 -4 -459 -11 -456 -16 3
-4 29 -8 57 -8 l52 0 27 -60 26 -60 -112 0 c-85 0 -117 -4 -134 -16 -12 -8
-22 -19 -22 -25 0 -5 773 -9 2053 -9 l2052 1 -28 24 c-27 24 -32 25 -188 25
-87 0 -159 2 -159 5 0 24 27 55 47 55 21 0 24 4 19 28 -9 42 -26 155 -26 170
0 11 21 12 108 7 l108 -7 12 26 c6 14 8 26 4 26 -4 0 -47 7 -97 14 -49 8 -151
22 -225 31 -74 9 -225 29 -335 45 -251 36 -790 112 -995 140 -85 11 -165 23
-177 26 -22 4 -23 8 -23 115 0 61 3 108 8 105 4 -2 217 -43 472 -91 472 -87
652 -121 840 -156 58 -11 151 -29 208 -40 57 -12 105 -19 107 -17 2 2 -69 21
-158 42 -89 21 -336 80 -548 132 -213 51 -435 105 -495 118 -267 63 -410 97
-426 102 -15 4 -18 18 -18 85 0 43 2 79 4 79 2 0 93 -22 202 -49 110 -28 287
-71 394 -96 107 -25 258 -61 335 -80 429 -105 558 -135 561 -132 2 2 -40 16
-94 31 -53 16 -284 84 -512 153 -403 121 -730 219 -837 250 l-53 16 0 56 c0
31 4 61 8 68 6 9 75 -8 262 -63 140 -41 359 -104 485 -140 127 -36 297 -85
379 -110 82 -25 150 -43 152 -42 1 2 -77 32 -174 67 -344 122 -690 246 -897
321 l-210 75 -3 57 c-4 81 12 88 115 47 69 -28 416 -160 548 -210 28 -10 86
-32 129 -48 44 -17 81 -29 83 -28 4 5 -838 429 -867 437 -14 4 -83 3 -154 -2
-123 -8 -130 -8 -151 12 -40 38 -91 44 -275 33z m323 -730 c4 -108 7 -256 7
-330 l0 -133 -60 0 -60 0 0 113 c0 61 -3 210 -7 330 l-6 217 60 0 60 0 6 -197z
m-732 -629 c12 -15 11 -16 -11 -9 -20 6 -23 5 -12 -6 17 -18 15 -40 -2 -33
-10 4 -15 -1 -15 -13 -1 -10 -3 -40 -5 -67 -5 -44 -3 -48 14 -43 22 6 26 -3 8
-21 -17 -17 -2 -28 17 -12 22 18 18 -4 -4 -24 -28 -25 -53 -17 -73 24 -52 103
21 279 83 204z m1576 -13 c57 -3 97 -10 96 -16 -1 -6 -9 -28 -17 -50 -21 -56
-19 -132 4 -182 l19 -43 -189 0 -190 0 27 55 c21 43 32 55 50 55 34 0 36 18
14 105 -12 44 -21 83 -21 88 0 4 25 5 55 2 30 -4 99 -10 152 -14z m-496 -50
c18 -14 23 -31 27 -77 5 -79 -16 -134 -52 -134 -30 0 -31 1 -10 60 17 48 12
100 -11 136 -24 37 7 47 46 15z m200 -13 c29 -48 23 -148 -11 -183 -18 -18
-29 -22 -40 -15 -12 8 -13 13 -2 30 17 28 16 141 -3 166 -20 27 -19 34 10 34
18 0 31 -10 46 -32z m1146 -39 c24 -46 10 -145 -22 -156 -7 -2 -11 31 -10 92
0 96 8 112 32 64z m150 -38 c6 -47 -13 -121 -32 -121 -9 0 -12 26 -10 93 2 50
4 94 4 97 1 2 8 -3 17 -11 8 -9 18 -35 21 -58z m-379 -83 c7 -24 15 -49 18
-55 4 -10 -18 -13 -91 -13 -88 0 -97 2 -90 18 3 9 12 34 18 55 l12 37 60 0 61
0 12 -42z m-1426 20 c8 -7 25 -30 37 -50 l23 -38 -407 0 -406 0 19 28 c10 15
22 35 25 44 6 16 33 18 334 21 180 1 335 3 344 5 8 1 22 -4 31 -10z m-964 -43
l22 -45 -260 0 -259 0 22 45 22 45 216 0 215 0 22 -45z"/>
<path d="M3330 4419 c0 -17 5 -20 32 -17 22 2 34 9 36 21 3 14 -4 17 -32 17
-30 0 -36 -4 -36 -21z"/>
<path d="M4040 4420 c0 -19 5 -21 57 -18 46 2 59 7 61 21 3 15 -5 17 -57 17
-55 0 -61 -2 -61 -20z"/>
<path d="M1540 3525 l0 -345 110 0 110 0 0 135 0 135 203 2 202 3 0 60 0 60
-202 3 -203 2 0 80 0 80 230 0 230 0 0 65 0 65 -340 0 -340 0 0 -345z"/>
<path d="M2370 3527 c0 -189 2 -346 4 -348 2 -2 149 -3 325 -1 l321 3 0 64 0
65 -215 0 -215 0 0 280 0 280 -110 0 -110 0 0 -343z"/>
<path d="M3160 3525 l0 -345 345 0 345 0 0 60 0 60 -237 2 -238 3 0 85 0 85
208 3 207 2 0 60 0 60 -207 2 -208 3 0 65 0 65 238 3 237 2 0 65 0 65 -345 0
-345 0 0 -345z"/>
<path d="M4020 3525 l0 -345 351 0 352 0 -7 46 c-3 26 -6 53 -6 60 0 11 -44
14 -240 14 l-240 0 0 90 0 90 210 0 210 0 0 60 0 60 -207 2 -208 3 -3 67 -3
68 238 2 238 3 -1 60 -2 60 -341 3 -341 2 0 -345z"/>
<path d="M4820 3805 l0 -65 135 0 135 0 0 -280 0 -280 105 0 105 0 0 280 0
280 135 0 135 0 0 65 0 65 -375 0 -375 0 0 -65z"/>
<path d="M5710 3525 l0 -345 105 0 106 0 -3 225 c-2 124 -1 225 2 225 6 -1
203 -414 208 -436 3 -12 21 -14 99 -12 l95 3 106 225 107 225 3 -228 2 -227
105 0 105 0 0 345 0 345 -150 0 -150 0 -33 -67 c-19 -38 -67 -141 -107 -230
-40 -90 -75 -163 -79 -163 -3 0 -28 48 -55 108 -28 59 -76 162 -107 230 l-58
122 -151 0 -150 0 0 -345z"/>
<path d="M7147 3798 c-19 -40 -71 -149 -114 -243 -44 -93 -103 -216 -132 -272
l-51 -103 113 0 113 0 31 73 31 72 174 0 173 0 34 -72 34 -73 114 0 c63 0 112
3 110 8 -7 9 -214 437 -279 574 l-51 108 -133 0 -133 0 -34 -72z m215 -205
c73 -157 78 -143 -52 -143 -61 0 -110 4 -108 8 29 74 103 232 108 232 4 0 27
-44 52 -97z"/>
<path d="M7890 3525 l0 -345 105 0 105 0 0 217 c0 216 0 217 20 198 20 -21 72
-85 235 -288 l100 -125 123 -1 122 -1 0 345 0 346 -107 -3 -108 -3 0 -213 c0
-116 -3 -212 -7 -212 -4 0 -11 7 -15 15 -5 8 -81 105 -168 215 l-160 200 -122
0 -123 0 0 -345z"/>
</g>
</svg>
